<?xml version="1.0" encoding="utf-8"?>
<!-- Generator: Adobe Illustrator 16.0.0, SVG Export Plug-In . SVG Version: 6.00 Build 0)  -->
<!DOCTYPE svg PUBLIC "-//W3C//DTD SVG 1.1//EN" "http://www.w3.org/Graphics/SVG/1.1/DTD/svg11.dtd">
<svg version="1.1" id="Layer_1" xmlns="http://www.w3.org/2000/svg" xmlns:xlink="http://www.w3.org/1999/xlink" x="0px" y="0px"
	 width="49.624px" height="51px" viewBox="-150.355 -11.531 49.624 51" enable-background="new -150.355 -11.531 49.624 51"
	 xml:space="preserve">
<g>
	<g>
		<path fill="#363636" d="M-137.952,8.614c-0.257-0.667-0.403-1.389-0.403-2.146c0-3.308,2.692-6,6-6
			c0.756,0,1.478,0.146,2.145,0.403c1.123-1.012,2.382-1.844,3.742-2.474c-1.652-1.208-3.683-1.93-5.887-1.93
			c-5.522,0-10,4.478-10,10c0,2.045,0.617,3.945,1.67,5.529C-139.971,10.726-139.045,9.583-137.952,8.614z"/>
		<path fill="#363636" d="M-130.355-8.531c0,1.65-0.9,3-2,3s-2-1.35-2-3c0-1.65,0.9-3,2-3S-130.355-10.181-130.355-8.531z"/>
		<path fill="#363636" d="M-147.355,8.469c-1.65,0-3-0.9-3-2c0-1.1,1.35-2,3-2s3,0.9,3,2
			C-144.355,7.569-145.706,8.469-147.355,8.469z"/>
		<path fill="#363636" d="M-120.094-3c0.958-1.131,1.186-2.54,0.466-3.259c-0.778-0.778-2.368-0.46-3.535,0.707
			c-0.98,0.98-1.353,2.255-0.987,3.101C-122.85-2.809-121.49-3-120.094-3z"/>
		<path fill="#363636" d="M-142.355,18.389c0-1.329,0.201-2.619,0.575-3.839c-0.8-0.078-1.795,0.311-2.596,1.111
			c-1.167,1.167-1.485,2.757-0.707,3.535c0.616,0.617,1.742,0.535,2.763-0.102C-142.333,18.859-142.355,18.627-142.355,18.389z"/>
		<path fill="#363636" d="M-141.548-5.552c1.167,1.167,1.485,2.757,0.707,3.535c-0.778,0.778-2.369,0.459-3.535-0.707
			c-1.167-1.167-1.485-2.757-0.707-3.535C-144.305-7.037-142.714-6.719-141.548-5.552z"/>
	</g>
	<path fill="#363636" d="M-107.941,11.384c-0.001-0.012-3.32-0.571-6.539,1.71c1.312-2.281,3.094-3.812,6.123-4.122
		C-109.766,3.805-114.472,0-120.088,0c-4.432,0-8.305,2.373-10.435,5.913c2.729,0.119,5.606,2.18,7.405,4.506
		c-1.703-1.318-3.835-2.111-6.156-2.111c-0.84,0-1.652,0.115-2.432,0.31c-0.002-0.022-0.009-0.042-0.011-0.065
		c-0.008,0.024-0.018,0.047-0.025,0.072c-4.372,1.103-7.614,5.05-7.614,9.765c0,5.566,4.514,10.081,10.082,10.081h19.939
		c4.752,0,8.604-3.853,8.604-8.604C-100.73,15.588-103.854,12.05-107.941,11.384z"/>
	<path fill="#363636" d="M-125.73,36.469c0,1.657-1.343,3-3,3c-1.657,0-3-1.343-3-3c0-1,1-3,3-5
		C-126.73,33.469-125.73,35.469-125.73,36.469z"/>
	<path fill="#363636" d="M-115.73,36.469c0,1.657-1.343,3-3,3c-1.657,0-3-1.343-3-3c0-1,1-3,3-5
		C-116.73,33.469-115.73,35.469-115.73,36.469z"/>
	<path fill="#363636" d="M-105.73,36.469c0,1.657-1.343,3-3,3c-1.657,0-3-1.343-3-3c0-1,1-3,3-5
		C-106.73,33.469-105.73,35.469-105.73,36.469z"/>
</g>
</svg>
